<svg width="180" height="80" viewBox="0 0 180 80" fill="none" xmlns="http://www.w3.org/2000/svg">
  <g>
    <path fill="white"
      d="M68.141 3H103.632C118.023 3 129.689 14.6662 129.689 29.0573V62.904H115.112V29.0573C115.112 28.7105 115.098 28.3662 115.072 28.0251L79.581 62.898C79.701 62.902 79.821 62.904 79.941 62.904H115.112V76.672H79.941C65.5504 76.672 53.5638 64.891 53.5638 50.5V16.7434H68.141V50.5C68.141 51.15 68.191 51.792 68.289 52.422L104.56 16.7816C104.255 16.7563 103.945 16.7434 103.632 16.7434H68.141V3Z" />
    <path fill="white"
      d="M32.2926 74.136L-19 16.7372H1.6355L31.7495 50.436V16.7372H47.1365V68.47C47.1365 76.278 37.4953 79.958 32.2926 74.136Z" />
  </g>
</svg>